<?xml version="1.0" encoding="UTF-8"?>
<svg width="80" height="80" viewBox="0 0 80 80" xmlns="http://www.w3.org/2000/svg">
  <!-- 主角落装饰框架 -->
  <path d="M5 5 L5 40 Q5 50, 15 50 L50 50 Q60 50, 60 60 L60 75 L75 75 L75 60 Q75 45, 60 45 L45 45 Q35 45, 35 35 L35 20 Q35 5, 20 5 L5 5" 
        fill="none" 
        stroke="#c9a96e" 
        stroke-width="1.5" />
  
  <!-- 内部角落装饰 -->
  <path d="M10 10 L10 30 Q10 35, 15 35 L35 35 Q40 35, 40 40 L40 50" 
        fill="none" 
        stroke="#c9a96e" 
        stroke-width="0.8" 
        stroke-dasharray="3,1" />
  
  <!-- 点缀花纹1 -->
  <circle cx="15" cy="15" r="2" fill="#c9a96e" />
  <circle cx="30" cy="30" r="2" fill="#c9a96e" />
  <circle cx="45" cy="45" r="2" fill="#c9a96e" />
  <circle cx="60" cy="60" r="2" fill="#c9a96e" />
  
  <!-- 装饰祥云纹样 -->
  <path d="M20 10 Q25 5, 30 10 Q35 15, 40 10 Q45 5, 50 10" 
        fill="none" 
        stroke="#c9a96e" 
        stroke-width="0.8" />
  
  <path d="M10 20 Q15 15, 20 20 Q25 25, 30 20" 
        fill="none" 
        stroke="#c9a96e" 
        stroke-width="0.8" />
  
  <!-- 几何装饰纹样 -->
  <rect x="50" y="15" width="6" height="6" fill="none" stroke="#c9a96e" stroke-width="0.8" transform="rotate(45, 53, 18)" />
  <rect x="15" y="50" width="6" height="6" fill="none" stroke="#c9a96e" stroke-width="0.8" transform="rotate(45, 18, 53)" />
</svg> 