<?xml version="1.0" encoding="UTF-8"?>
<svg width="120" height="120" viewBox="0 0 120 120" xmlns="http://www.w3.org/2000/svg">
  <defs>
    <radialGradient id="grad" cx="50%" cy="50%" r="50%" fx="50%" fy="50%">
      <stop offset="0%" stop-color="#FDE68A" stop-opacity="0.8"/>
      <stop offset="100%" stop-color="#D97706" stop-opacity="0.6"/>
    </radialGradient>
  </defs>
  <circle cx="60" cy="60" r="56" fill="url(#grad)" stroke="#F59E0B" stroke-width="2"/>
  <circle cx="60" cy="60" r="40" fill="none" stroke="#EAB308" stroke-width="1.5" stroke-dasharray="2,3"/>
  <circle cx="60" cy="60" r="48" fill="none" stroke="#F59E0B" stroke-width="1" stroke-dasharray="1,2"/>
  
  <!-- 中国古典装饰图案 - 简化的中国结 -->
  <path d="M60 30 Q70 40 60 50 Q50 40 60 30" fill="none" stroke="#7C2D12" stroke-width="2"/>
  <path d="M60 70 Q70 80 60 90 Q50 80 60 70" fill="none" stroke="#7C2D12" stroke-width="2"/>
  <path d="M30 60 Q40 70 50 60 Q40 50 30 60" fill="none" stroke="#7C2D12" stroke-width="2"/>
  <path d="M70 60 Q80 70 90 60 Q80 50 70 60" fill="none" stroke="#7C2D12" stroke-width="2"/>
  
  <!-- 中心点 -->
  <circle cx="60" cy="60" r="15" fill="#92400E" stroke="#F59E0B" stroke-width="1.5"/>
  <circle cx="60" cy="60" r="8" fill="#B45309" stroke="#FDE68A" stroke-width="1"/>
  
  <!-- 放射线 -->
  <line x1="60" y1="15" x2="60" y2="25" stroke="#F59E0B" stroke-width="1"/>
  <line x1="60" y1="95" x2="60" y2="105" stroke="#F59E0B" stroke-width="1"/>
  <line x1="15" y1="60" x2="25" y2="60" stroke="#F59E0B" stroke-width="1"/>
  <line x1="95" y1="60" x2="105" y2="60" stroke="#F59E0B" stroke-width="1"/>
  
  <line x1="30" y1="30" x2="37" y2="37" stroke="#F59E0B" stroke-width="1"/>
  <line x1="83" y1="83" x2="90" y2="90" stroke="#F59E0B" stroke-width="1"/>
  <line x1="30" y1="90" x2="37" y2="83" stroke="#F59E0B" stroke-width="1"/>
  <line x1="83" y1="37" x2="90" y2="30" stroke="#F59E0B" stroke-width="1"/>
</svg> 