<svg xmlns="http://www.w3.org/2000/svg" viewBox="0 0 100 50" fill="none">
  <path d="M0 0 L100 0 L100 50 L0 50 Z" fill="none"/>
  <path d="M10 10 L90 10 M10 25 L90 25 M10 40 L90 40" stroke="#ffffff" stroke-width="0.3" opacity="0.15" fill="none"/>
  <path d="M10 5 L10 45 M30 5 L30 45 M50 5 L50 45 M70 5 L70 45 M90 5 L90 45" stroke="#ffffff" stroke-width="0.3" opacity="0.15" fill="none"/>
  <path d="M20 20 L25 20 M40 20 L45 20 M60 20 L65 20 M80 20 L85 20" stroke="#ffffff" stroke-width="0.4" opacity="0.2" fill="none"/>
  <path d="M20 30 L25 30 M40 30 L45 30 M60 30 L65 30 M80 30 L85 30" stroke="#ffffff" stroke-width="0.4" opacity="0.2" fill="none"/>
</svg> 