<svg xmlns="http://www.w3.org/2000/svg" viewBox="0 0 100 100" fill="none">
  <path d="M30 20 C35 15 45 15 50 20 C55 25 55 35 50 40 C45 45 35 45 30 40 C25 35 25 25 30 20 Z" stroke="#d3b78e" stroke-width="0.7" opacity="0.2" fill="none"/>
  <path d="M50 40 C60 40 70 50 70 60 C70 70 60 80 50 80 C40 80 30 70 30 60 C30 50 40 40 50 40 Z" stroke="#d3b78e" stroke-width="0.7" opacity="0.2" fill="none"/>
  <path d="M50 40 Q55 45 60 40 L65 35 L70 40 L75 35" stroke="#d3b78e" stroke-width="0.6" opacity="0.15" fill="none"/>
  <path d="M50 60 Q45 55 40 60 L35 65 L30 60 L25 65" stroke="#d3b78e" stroke-width="0.6" opacity="0.15" fill="none"/>
  <path d="M70 60 Q65 65 70 70 Q75 75 70 80" stroke="#d3b78e" stroke-width="0.6" opacity="0.15" fill="none"/>
  <path d="M30 60 Q35 55 30 50 Q25 45 30 40" stroke="#d3b78e" stroke-width="0.6" opacity="0.15" fill="none"/>
  <circle cx="35" cy="25" r="2" stroke="#d3b78e" stroke-width="0.4" opacity="0.2" fill="none"/>
  <circle cx="65" cy="65" r="2" stroke="#d3b78e" stroke-width="0.4" opacity="0.2" fill="none"/>
</svg> 