<svg xmlns="http://www.w3.org/2000/svg" viewBox="0 0 100 100" fill="none">
  <path d="M10 10 L20 10 M30 10 L40 10 M50 10 L60 10 M70 10 L80 10 M90 10 L100 10" stroke="#d3b78e" stroke-width="0.4" opacity="0.2" stroke-dasharray="2 3" fill="none"/>
  <path d="M10 20 L20 20 M30 20 L40 20 M50 20 L60 20 M70 20 L80 20 M90 20 L100 20" stroke="#d3b78e" stroke-width="0.4" opacity="0.2" stroke-dasharray="2 3" fill="none"/>
  <path d="M10 30 L20 30 M30 30 L40 30 M50 30 L60 30 M70 30 L80 30 M90 30 L100 30" stroke="#d3b78e" stroke-width="0.4" opacity="0.2" stroke-dasharray="2 3" fill="none"/>
  <path d="M10 40 L20 40 M30 40 L40 40 M50 40 L60 40 M70 40 L80 40 M90 40 L100 40" stroke="#d3b78e" stroke-width="0.4" opacity="0.2" stroke-dasharray="2 3" fill="none"/>
  <path d="M10 50 L20 50 M30 50 L40 50 M50 50 L60 50 M70 50 L80 50 M90 50 L100 50" stroke="#d3b78e" stroke-width="0.4" opacity="0.2" stroke-dasharray="2 3" fill="none"/>
  <path d="M10 60 L20 60 M30 60 L40 60 M50 60 L60 60 M70 60 L80 60 M90 60 L100 60" stroke="#d3b78e" stroke-width="0.4" opacity="0.2" stroke-dasharray="2 3" fill="none"/>
  <path d="M10 70 L20 70 M30 70 L40 70 M50 70 L60 70 M70 70 L80 70 M90 70 L100 70" stroke="#d3b78e" stroke-width="0.4" opacity="0.2" stroke-dasharray="2 3" fill="none"/>
  <path d="M10 80 L20 80 M30 80 L40 80 M50 80 L60 80 M70 80 L80 80 M90 80 L100 80" stroke="#d3b78e" stroke-width="0.4" opacity="0.2" stroke-dasharray="2 3" fill="none"/>
  <path d="M10 90 L20 90 M30 90 L40 90 M50 90 L60 90 M70 90 L80 90 M90 90 L100 90" stroke="#d3b78e" stroke-width="0.4" opacity="0.2" stroke-dasharray="2 3" fill="none"/>
  <path d="M10 10 L10 20 M10 30 L10 40 M10 50 L10 60 M10 70 L10 80 M10 90 L10 100" stroke="#d3b78e" stroke-width="0.4" opacity="0.2" stroke-dasharray="2 3" fill="none"/>
  <path d="M20 10 L20 20 M20 30 L20 40 M20 50 L20 60 M20 70 L20 80 M20 90 L20 100" stroke="#d3b78e" stroke-width="0.4" opacity="0.2" stroke-dasharray="2 3" fill="none"/>
  <path d="M30 10 L30 20 M30 30 L30 40 M30 50 L30 60 M30 70 L30 80 M30 90 L30 100" stroke="#d3b78e" stroke-width="0.4" opacity="0.2" stroke-dasharray="2 3" fill="none"/>
  <path d="M40 10 L40 20 M40 30 L40 40 M40 50 L40 60 M40 70 L40 80 M40 90 L40 100" stroke="#d3b78e" stroke-width="0.4" opacity="0.2" stroke-dasharray="2 3" fill="none"/>
  <path d="M50 10 L50 20 M50 30 L50 40 M50 50 L50 60 M50 70 L50 80 M50 90 L50 100" stroke="#d3b78e" stroke-width="0.4" opacity="0.2" stroke-dasharray="2 3" fill="none"/>
  <path d="M60 10 L60 20 M60 30 L60 40 M60 50 L60 60 M60 70 L60 80 M60 90 L60 100" stroke="#d3b78e" stroke-width="0.4" opacity="0.2" stroke-dasharray="2 3" fill="none"/>
  <path d="M70 10 L70 20 M70 30 L70 40 M70 50 L70 60 M70 70 L70 80 M70 90 L70 100" stroke="#d3b78e" stroke-width="0.4" opacity="0.2" stroke-dasharray="2 3" fill="none"/>
  <path d="M80 10 L80 20 M80 30 L80 40 M80 50 L80 60 M80 70 L80 80 M80 90 L80 100" stroke="#d3b78e" stroke-width="0.4" opacity="0.2" stroke-dasharray="2 3" fill="none"/>
  <path d="M90 10 L90 20 M90 30 L90 40 M90 50 L90 60 M90 70 L90 80 M90 90 L90 100" stroke="#d3b78e" stroke-width="0.4" opacity="0.2" stroke-dasharray="2 3" fill="none"/>
</svg> 