<svg xmlns="http://www.w3.org/2000/svg" viewBox="0 0 50 50" fill="none">
  <path d="M5 15 Q10 10 15 15 Q20 20 25 15 Q30 10 35 15 Q40 20 45 15" stroke="#d3b78e" stroke-width="0.5" opacity="0.3" fill="none"/>
  <path d="M5 25 Q10 20 15 25 Q20 30 25 25 Q30 20 35 25 Q40 30 45 25" stroke="#d3b78e" stroke-width="0.5" opacity="0.3" fill="none"/>
  <path d="M5 35 Q10 30 15 35 Q20 40 25 35 Q30 30 35 35 Q40 40 45 35" stroke="#d3b78e" stroke-width="0.5" opacity="0.3" fill="none"/>
  <circle cx="15" cy="15" r="1" fill="#d3b78e" opacity="0.2"/>
  <circle cx="25" cy="25" r="1" fill="#d3b78e" opacity="0.2"/>
  <circle cx="35" cy="35" r="1" fill="#d3b78e" opacity="0.2"/>
  <circle cx="35" cy="15" r="1" fill="#d3b78e" opacity="0.2"/>
  <circle cx="15" cy="35" r="1" fill="#d3b78e" opacity="0.2"/>
</svg> 